<?xml version="1.0" standalone="no"?>
<!DOCTYPE svg PUBLIC "-//W3C//DTD SVG 20010904//EN"
 "http://www.w3.org/TR/2001/REC-SVG-20010904/DTD/svg10.dtd">
<svg version="1.0" xmlns="http://www.w3.org/2000/svg"
 width="128.000000pt" height="128.000000pt" viewBox="0 0 128.000000 128.000000"
 preserveAspectRatio="xMidYMid meet">
<metadata>
Created by potrace 1.11, written by Peter Selinger 2001-2013
</metadata>
<g transform="translate(0.000000,128.000000) scale(0.100000,-0.100000)"
fill="#000000" stroke="none">
<path d="M344 1135 c-6 -13 32 -64 47 -65 3 0 11 11 17 25 9 19 8 27 -4 40
-20 19 -53 19 -60 0z"/>
<path d="M278 1046 c-15 -35 -4 -56 29 -56 16 0 39 -7 51 -16 22 -15 22 -15
22 28 0 53 -13 68 -57 68 -26 0 -36 -6 -45 -24z"/>
<path d="M402 1058 c-7 -7 -12 -32 -12 -56 0 -43 0 -43 22 -28 12 9 34 16 49
16 40 0 55 24 35 55 -18 28 -72 35 -94 13z"/>
<path d="M302 930 c-110 -23 -220 -112 -271 -220 -23 -49 -26 -67 -26 -170 0
-105 2 -120 28 -176 54 -117 152 -186 310 -218 94 -20 152 -20 242 -1 137 29
320 141 415 255 39 46 45 50 75 44 22 -4 45 0 72 15 42 21 133 114 133 136 0
22 -69 48 -115 43 l-41 -5 3 51 c3 39 -1 59 -16 84 -12 17 -25 32 -30 32 -18
0 -161 -163 -161 -184 0 -12 9 -35 19 -53 11 -17 17 -34 14 -37 -4 -3 -26 -6
-50 -6 -37 0 -49 6 -82 39 -24 24 -45 59 -56 92 -33 99 -63 139 -187 244 -10
8 -18 13 -18 10 0 -2 -19 2 -41 11 -54 18 -162 26 -217 14z"/>
</g>
</svg>
